<svg width="80" height="81" viewBox="0 0 80 81" fill="none" xmlns="http://www.w3.org/2000/svg">
<path d="M8.33331 70.8484V10.8484C8.33331 9.08034 9.03569 7.38465 10.2859 6.13441C11.5362 4.88416 13.2319 4.18178 15 4.18178H52.1358C53.9695 4.182 55.7281 4.91037 57.025 6.20678L69.6416 18.8234C70.9381 20.1203 71.6664 21.8789 71.6666 23.7126V70.8484C71.6666 72.6166 70.9643 74.3122 69.714 75.5625C68.4638 76.8127 66.7681 77.5151 65 77.5151H15C13.2319 77.5151 11.5362 76.8127 10.2859 75.5625C9.03569 74.3122 8.33331 72.6166 8.33331 70.8484Z" stroke="#58595B" stroke-width="4" stroke-miterlimit="10" stroke-linecap="round"/>
<path d="M53.3333 5.01512V15.0151C53.3333 16.7832 54.0357 18.4789 55.2859 19.7292C56.5362 20.9794 58.2319 21.6818 60 21.6818H70" stroke="#58595B" stroke-width="4" stroke-miterlimit="10" stroke-linecap="round"/>
<path d="M22.5 39.1818H57.5" stroke="#58595B" stroke-width="4" stroke-miterlimit="10" stroke-linecap="round"/>
<path d="M22.5 58.3484H57.5" stroke="#58595B" stroke-width="4" stroke-miterlimit="10" stroke-linecap="round"/>
</svg>
