<svg width="80" height="81" viewBox="0 0 80 81" fill="none" xmlns="http://www.w3.org/2000/svg">
<path d="M65.1931 80.8484H14.8069C10.0697 80.8484 6.21564 76.9944 6.21564 72.2572V25.8303C6.21564 21.0931 10.0697 17.2394 14.8069 17.2394H65.1933C69.9305 17.2394 73.7845 21.0934 73.7845 25.8303V72.257C73.7844 76.9944 69.9303 80.8484 65.1931 80.8484ZM14.8069 21.4017C12.365 21.4017 10.3781 23.3884 10.3781 25.8302V72.2569C10.3781 74.6988 12.3647 76.6856 14.8069 76.6856H65.1933C67.6352 76.6856 69.622 74.6989 69.622 72.2569V25.8303C69.622 23.3886 67.6355 21.4019 65.1933 21.4019H14.8069V21.4017Z" fill="#58595B"/>
<path d="M71.703 33.8377V25.8303C71.703 22.235 68.7884 19.3203 65.193 19.3203H14.8069C11.2116 19.3203 8.29688 22.2349 8.29688 25.8303V33.8377H71.703Z" fill="#9CF6F6"/>
<path d="M71.7031 35.9189H8.29689C7.14736 35.9189 6.21564 34.9869 6.21564 33.8377V25.8303C6.21564 21.0931 10.0697 17.2394 14.8069 17.2394H65.1933C69.9305 17.2394 73.7845 21.0934 73.7845 25.8303V33.8377C73.7844 34.9869 72.8524 35.9189 71.7031 35.9189ZM10.3781 31.7564H69.6219V25.8303C69.6219 23.3886 67.6353 21.4019 65.1931 21.4019H14.8069C12.365 21.4019 10.3781 23.3886 10.3781 25.8303V31.7564Z" fill="#58595B"/>
<path d="M17.3145 52.6988C16.165 52.6988 15.2333 51.7667 15.2333 50.6175V44.5585C15.2333 42.7927 16.67 41.3561 18.4356 41.3561H25.6394C26.7889 41.3561 27.7206 42.2881 27.7206 43.4374C27.7206 44.5866 26.7889 45.5186 25.6394 45.5186H19.3956V50.6177C19.3958 51.7667 18.4641 52.6988 17.3145 52.6988Z" fill="#58595B"/>
<path d="M35.9766 52.6988C34.827 52.6988 33.8953 51.7667 33.8953 50.6175V44.5585C33.8953 42.7927 35.332 41.3561 37.0977 41.3561H44.3014C45.4509 41.3561 46.3827 42.2881 46.3827 43.4374C46.3827 44.5866 45.4509 45.5186 44.3014 45.5186H38.0577V50.6177C38.0578 51.7667 37.1261 52.6988 35.9766 52.6988Z" fill="#58595B"/>
<path d="M54.6387 52.6988C53.4892 52.6988 52.5575 51.7667 52.5575 50.6175V44.5585C52.5575 42.7927 53.9942 41.3561 55.7598 41.3561H62.9636C64.1131 41.3561 65.0448 42.2881 65.0448 43.4374C65.0448 44.5866 64.1131 45.5186 62.9636 45.5186H56.7198V50.6177C56.72 51.7667 55.7883 52.6988 54.6387 52.6988Z" fill="#58595B"/>
<path d="M17.3145 72.1336C16.165 72.1336 15.2333 71.2016 15.2333 70.0523V63.9933C15.2333 62.2275 16.67 60.7909 18.4356 60.7909H25.6394C26.7889 60.7909 27.7206 61.723 27.7206 62.8722C27.7206 64.0214 26.7889 64.9534 25.6394 64.9534H19.3956V70.0525C19.3958 71.2017 18.4641 72.1336 17.3145 72.1336Z" fill="#58595B"/>
<path d="M35.9766 72.1336C34.827 72.1336 33.8953 71.2016 33.8953 70.0523V63.9933C33.8953 62.2275 35.332 60.7909 37.0977 60.7909H44.3014C45.4509 60.7909 46.3827 61.723 46.3827 62.8722C46.3827 64.0214 45.4509 64.9534 44.3014 64.9534H38.0577V70.0525C38.0578 71.2017 37.1261 72.1336 35.9766 72.1336Z" fill="#58595B"/>
<path d="M54.6387 72.1336C53.4892 72.1336 52.5575 71.2016 52.5575 70.0523V63.9933C52.5575 62.2275 53.9942 60.7909 55.7598 60.7909H62.9636C64.1131 60.7909 65.0448 61.723 65.0448 62.8722C65.0448 64.0214 64.1131 64.9534 62.9636 64.9534H56.7198V70.0525C56.72 71.2017 55.7883 72.1336 54.6387 72.1336Z" fill="#58595B"/>
<path d="M39.9998 20.2041C38.8503 20.2041 37.9186 19.272 37.9186 18.1228V10.0059C37.9186 8.85673 38.8503 7.9247 39.9998 7.9247C41.1494 7.9247 42.0811 8.85673 42.0811 10.0059V18.1228C42.0811 19.272 41.1494 20.2041 39.9998 20.2041Z" fill="#58595B"/>
<path d="M39.9995 12.5035C42.6432 12.5035 44.7864 10.3603 44.7864 7.71658C44.7864 5.07286 42.6432 2.9297 39.9995 2.9297C37.3558 2.9297 35.2126 5.07286 35.2126 7.71658C35.2126 10.3603 37.3558 12.5035 39.9995 12.5035Z" fill="#9CF6F6"/>
<path d="M39.9998 14.5847C36.2128 14.5847 33.1317 11.5036 33.1317 7.71657C33.1317 3.92954 36.2128 0.84845 39.9998 0.84845C43.7869 0.84845 46.868 3.92954 46.868 7.71657C46.868 11.5036 43.7872 14.5847 39.9998 14.5847ZM39.9998 5.01095C38.508 5.01095 37.2942 6.2247 37.2942 7.71657C37.2942 9.20845 38.508 10.4222 39.9998 10.4222C41.4917 10.4222 42.7055 9.20845 42.7055 7.71657C42.7055 6.2247 41.4919 5.01095 39.9998 5.01095Z" fill="#58595B"/>
</svg>
