<svg width="40" height="40" viewBox="0 0 40 40" fill="none" xmlns="http://www.w3.org/2000/svg">
<g clip-path="url(#clip0_26_67)">
<path d="M40.0001 6.16603C40.0001 4.5189 39.3587 2.97066 38.194 1.80607C37.0296 0.641642 35.4812 0.000152588 33.8342 0.000152588C32.187 0.000152588 30.6388 0.641642 29.4742 1.80607L27.6248 3.65548L27.6186 3.64929L27.4461 3.83408L18.3575 12.9226C18.2338 13.0466 18.1068 13.1842 17.9799 13.3317C17.5608 13.8189 17.7773 14.1708 17.9438 14.3372L25.699 22.0923C25.8433 22.2367 25.9928 22.3099 26.1434 22.3099C26.3503 22.3099 26.495 22.1768 26.591 22.0886C26.6054 22.0753 26.6189 22.0629 26.6312 22.0524C26.7934 21.9145 26.9437 21.7766 27.0777 21.6426L36.1623 12.558L36.3489 12.3794L36.3449 12.3754L38.1943 10.5262C39.3587 9.36141 40.0001 7.81301 40.0001 6.16603Z" fill="#515151"/>
<path d="M15.1516 18.1256C15.0088 17.9827 14.8198 17.9041 14.6195 17.9041C14.4123 17.9041 14.2116 17.9917 14.0692 18.1448L2.9938 30.0335C2.74958 30.2953 2.44811 30.7811 2.32136 31.1162L1.74657 32.6378C1.60419 33.0151 1.71593 33.5337 2.001 33.8188L2.11227 33.9301L0.0499096 39.3904C-0.0396977 39.6278 0.00796905 39.7739 0.0636835 39.8545C0.128529 39.9481 0.235779 40 0.365934 40C0.440375 40 0.522554 39.9833 0.609839 39.9503L6.06985 37.8878L6.18113 37.9991C6.37582 38.1938 6.69122 38.3148 7.00431 38.3148C7.134 38.3148 7.25425 38.2941 7.36212 38.2535L8.88374 37.6787C9.21849 37.5523 9.70429 37.2506 9.96661 37.0064L21.8551 25.931C22.0066 25.7899 22.0921 25.5991 22.0958 25.3938C22.0993 25.1886 22.0209 24.995 21.8743 24.8486L15.1516 18.1256Z" fill="#515151"/>
</g>
<defs>
<clipPath id="clip0_26_67">
<rect width="40" height="40" fill="white"/>
</clipPath>
</defs>
</svg>
