<svg width="80" height="81" viewBox="0 0 80 81" fill="none" xmlns="http://www.w3.org/2000/svg">
<g clip-path="url(#clip0_22_198)">
<path d="M64.4667 68.5591L64.8053 68.9658C58.1427 74.9498 49.328 78.5951 39.6827 78.5951C30.0373 78.5951 21.2387 74.9671 14.576 69.0004L14.9493 68.5591C14.9493 68.5591 19.34 65.0671 24.5107 63.7791C29.6813 62.4911 32.02 58.8631 32.02 58.8631V52.5231C32.02 52.5231 28.256 47.4884 28.7827 43.9964C28.7827 43.9964 24.1213 40.8938 27.3587 36.3684C27.3587 36.3684 19.8653 14.8564 38.8693 14.6364C43.684 14.5858 46.0733 18.2471 46.0733 18.2471C58.94 16.9591 52.0573 36.3684 52.0573 36.3684C55.2947 40.8951 50.6333 43.9964 50.6333 43.9964C51.1587 47.4884 47.396 52.5231 47.396 52.5231V58.8631C47.396 58.8631 49.736 62.4911 54.9053 63.7791C60.076 65.0671 64.4667 68.5591 64.4667 68.5591Z" fill="#9CF6F6"/>
<path d="M64.4667 68.5591C64.4667 68.5591 60.076 65.0671 54.9053 63.7791C49.7347 62.4911 47.396 58.8631 47.396 58.8631V52.5231C47.396 52.5231 51.16 47.4884 50.6333 43.9964C50.6333 43.9964 55.2947 40.8938 52.0573 36.3684C52.0573 36.3684 58.94 16.9578 46.0733 18.2471C46.0733 18.2471 43.6827 14.5858 38.8693 14.6364C19.8653 14.8564 27.3587 36.3684 27.3587 36.3684C24.1213 40.8951 28.7827 43.9964 28.7827 43.9964C28.2573 47.4884 32.02 52.5231 32.02 52.5231V58.8631C32.02 58.8631 29.68 62.4911 24.5107 63.7791C19.34 65.0671 14.9493 68.5591 14.9493 68.5591" stroke="#AEC7D5" stroke-width="4" stroke-miterlimit="10" stroke-linecap="round" stroke-linejoin="round"/>
<path d="M14.576 68.9991C6.87998 62.1005 2.03198 52.0818 2.03198 40.9431C2.03198 20.1431 18.8826 3.29245 39.6826 3.29245C60.4653 3.29245 77.3333 20.1431 77.3333 40.9431C77.3333 52.0804 72.5013 62.0818 64.8053 68.9645C58.1427 74.9485 49.328 78.5938 39.6826 78.5938C30.0373 78.5938 21.2386 74.9671 14.576 68.9991Z" stroke="#AEC7D5" stroke-width="4" stroke-miterlimit="10"/>
</g>
<defs>
<clipPath id="clip0_22_198">
<rect width="80" height="80" fill="white" transform="translate(0 0.84845)"/>
</clipPath>
</defs>
</svg>
